<?xml version="1.0" encoding="UTF-8"?><svg id="Layer_1" xmlns="http://www.w3.org/2000/svg" viewBox="0 0 1080 432"><path d="M760.2344,196.9411l-50.8235-95.2944C676.0428,39.0811,610.9077,0,540.0001,0h-.0002C469.0923,0,403.9572,39.0811,370.589,101.6467l-50.8235,95.2944c-6.2566,11.7312-18.4695,19.0589-31.7648,19.0589H74.7306L0,432H122.3986c66.4765,0,127.5413-36.6389,158.8242-95.2947l54.2112-101.6464c6.2566-11.7312,18.4695-19.0589,31.7648-19.0589h345.6023c13.2953,0,25.5083,7.3278,31.7648,19.0589l54.2112,101.6464c31.283,58.6558,92.3477,95.2947,158.8242,95.2947h122.3986l-74.769-216h-213.2317c-13.2953,0-25.5083-7.3278-31.7648-19.0589Z" fill="#465bff"/></svg>