<svg width="35" height="39" viewBox="0 0 35 39" fill="none" xmlns="http://www.w3.org/2000/svg">
<path d="M14.8205 0.669873C16.3675 -0.223291 18.2735 -0.223291 19.8205 0.669873L32.141 7.78312C33.688 8.67629 34.641 10.3269 34.641 12.1132V26.3397C34.641 28.1261 33.688 29.7767 32.141 30.6699L19.8205 37.7831C18.2735 38.6763 16.3675 38.6763 14.8205 37.7831L2.5 30.6699C0.952994 29.7767 0 28.1261 0 26.3397V12.1132C0 10.3269 0.952995 8.67629 2.5 7.78312L14.8205 0.669873Z" fill="#1573FF"/>
<path d="M33.1324 25.8514H30.8065L30.5886 25.8251H30.4833C26.7859 25.2699 24.4073 20.8881 22.7277 17.039L22.5473 16.6263C22.1716 15.7559 21.8259 14.8931 21.499 14.0828C20.1237 10.6838 19.1317 8.22656 17.8166 8.22656C16.9561 8.22656 16.1219 9.35203 15.1863 11.693C10.463 23.7168 7.09995 25.5738 4.6951 25.8514H2.50819C2.45836 25.8514 2.41057 25.8712 2.37534 25.9063C2.34011 25.9415 2.32031 25.9892 2.32031 26.039C2.32031 26.0887 2.34011 26.1364 2.37534 26.1716C2.41057 26.2068 2.45836 26.2266 2.50819 26.2266H33.1324C33.1823 26.2266 33.23 26.2068 33.2653 26.1716C33.3005 26.1364 33.3203 26.0887 33.3203 26.039C33.3203 25.9892 33.3005 25.9415 33.2653 25.9063C33.23 25.8712 33.1823 25.8514 33.1324 25.8514ZM8.19716 25.8514H6.17934C6.91858 25.5384 7.6005 25.1048 8.19716 24.5684V25.8514ZM12.9242 25.8514H8.57292V24.2157C10.0233 22.8276 11.455 20.7005 12.9242 17.763V25.8514ZM17.6099 25.8514H13.2999V16.9977C14.0515 15.4671 14.7804 13.7414 15.5545 11.7981C16.3286 9.85474 17.0049 8.7968 17.6212 8.60547L17.6099 25.8514ZM22.382 17.2228V25.8514H17.9856V8.59422C18.9927 8.84932 19.9959 11.3329 21.1495 14.1878C21.5253 15.1482 21.9499 16.1724 22.4008 17.189L22.382 17.2228Z" fill="white"/>
</svg>
